PathFileType	4	(X/Y/Z)	D:\TRACE\v60_Jaco2_6-2-23\BothDRS_Motion1_9-v60.trc
DataRate	CameraRate	NumFrames	NumMarkers	Units	OrigDataRate	OrigDataStartFrame	OrigNumFrames
100.00	100.00	      35	9	mm	100.00	4688	      7500
Frame#	Time	front left toe			Front right toe			aft left toe			aft right toe			Arm			FL body			FR body			AL Body			AR Body			
		X1	Y1	Z1	X2	Y2	Z2	X3	Y3	Z3	X4	Y4	Z4	X5	Y5	Z5	X6	Y6	Z6	X7	Y7	Z7	X8	Y8	Z8	X9	Y9	Z9	

4688	46.870	-94.18372	32.03004	-285.48163	267.35825	14.52108	-333.49478	-44.90105	12.41768	330.80777	330.45450	23.47793	306.93777	144.58897	1109.87927	-676.26904	-4.20004	579.41266	-438.92621	155.49059	576.17407	-454.98514	87.54162	560.32971	502.71057	243.22676	550.58875	487.94968	
4689	46.880	-93.50548	25.26626	-283.88989	268.47800	14.06617	-333.29575	-44.03281	12.53347	330.66812	331.35547	20.06485	306.98734	145.27109	1109.96765	-677.01257	-2.93871	578.93774	-438.70865	156.63278	575.89502	-454.16492	88.25816	560.29419	503.14310	244.03717	550.97784	488.35010	
4690	46.890	-92.34554	18.47089	-283.05728	268.98773	13.84702	-333.39163	-43.26685	12.60188	330.52310	333.00638	18.69324	305.59213	146.88373	1110.08154	-678.13776	-1.15078	578.43079	-438.32678	158.51204	575.75781	-453.92230	88.87304	560.68866	503.70197	244.00014	551.76807	488.79089	
4691	46.900	-93.16649	18.76131	-285.62149	269.70416	13.63281	-333.40051	-42.20502	12.89231	330.52762	334.13031	18.86409	306.04663	147.58153	1110.22620	-678.94348	0.28980	577.53564	-437.76480	160.28668	575.38550	-453.44739	89.24571	561.72437	504.14954	244.59177	553.00427	489.53693	
4692	46.910	-92.65510	16.00359	-284.82437	270.60263	13.87471	-332.64871	-41.35689	13.42158	330.70520	334.79410	19.19208	305.95184	148.91150	1110.40454	-680.18329	1.85086	578.14478	-437.52231	161.02776	575.07965	-451.91132	89.34289	563.12994	504.39447	245.23903	554.05334	490.12393	
4693	46.920	-91.90576	16.90659	-284.33917	271.61636	15.23014	-333.45328	-40.56960	14.59118	330.39990	335.21500	18.43718	307.64914	149.70995	1110.75525	-682.21576	3.31548	579.56390	-437.29837	163.33401	576.59637	-452.37128	89.50375	563.71021	504.83170	245.69011	554.71777	490.85156	
4694	46.930	-89.99892	16.48608	-284.09125	270.22238	18.82021	-332.26636	-38.13964	17.69707	329.35266	336.39426	17.96969	306.72269	150.36472	1111.58252	-683.23590	5.10992	580.80017	-437.44699	165.08224	577.87439	-452.17133	89.70166	563.51959	504.77887	245.83913	554.52716	491.05249	
4695	46.940	-89.47786	16.86874	-284.86581	268.91064	23.39325	-328.80212	-34.10008	20.63102	332.68765	337.17230	18.19191	306.16998	151.66275	1113.33179	-683.56335	7.07385	581.36633	-437.42923	165.65578	578.44183	-451.91800	89.66972	563.32404	504.48523	245.91122	554.55743	491.01599	
4696	46.950	-89.07404	16.23282	-285.66797	267.45535	28.96537	-325.29688	-28.10923	27.50298	333.57974	337.56546	18.25828	306.31021	153.14233	1115.77075	-683.48907	8.03645	581.79773	-437.86145	167.43771	578.72833	-452.52322	89.80334	563.48364	504.21039	246.01027	554.66473	490.86307	
4697	46.960	-88.75234	15.78630	-285.33383	267.40591	38.10151	-323.99899	-25.62968	37.13574	332.91678	338.11163	18.59150	306.30548	155.17165	1118.40393	-683.81262	8.52800	581.56604	-438.57880	168.50056	578.13019	-452.79471	90.32457	563.80634	504.03018	246.10883	554.72974	490.74561	
4698	46.970	-88.22948	15.65925	-285.49564	268.14737	48.01279	-323.93021	-24.27804	46.92661	332.60730	338.91504	18.51988	306.48904	156.83127	1119.89319	-684.58069	9.38488	581.27441	-438.57617	168.58757	577.60748	-452.44849	90.93151	563.69348	503.99899	246.80876	554.51880	490.55167	
4699	46.980	-87.34868	15.45812	-285.71677	269.83701	59.06463	-325.09616	-26.69058	59.17291	330.89355	339.55121	18.31921	306.54285	158.69427	1120.10120	-686.11920	10.21015	580.95233	-438.56497	169.64571	577.47583	-452.49466	91.69442	563.02570	504.04236	247.55067	553.92651	490.52710	
4700	46.990	-86.83907	15.19417	-285.79459	272.68860	71.03886	-326.72299	-29.16384	70.58477	329.61249	340.28943	18.15261	306.30927	159.02502	1119.33276	-687.87140	11.14985	580.58185	-438.69284	171.01566	577.41785	-453.04889	92.45422	562.20929	503.78033	248.44405	553.32446	490.34488	
4701	47.000	-86.68898	15.02134	-285.69662	275.55731	83.05946	-328.02484	-30.59610	82.60759	328.21591	341.04843	18.35514	306.21964	159.25821	1118.23938	-689.26880	12.45205	580.03351	-438.64005	171.04271	576.84021	-452.87671	92.92261	562.00800	503.48770	248.59747	552.92859	490.13327	
4702	47.010	-86.14614	14.57562	-285.59888	278.65833	94.68780	-328.59479	-32.60873	95.04085	326.66904	341.67825	18.48734	306.19205	158.57939	1117.74109	-690.85260	13.29563	579.34937	-438.79688	171.92952	576.03345	-452.82529	93.40570	561.74640	503.30930	249.40897	552.54071	490.18954	
4703	47.020	-85.42435	14.07144	-285.68817	280.85886	105.29708	-328.90604	-31.66585	105.60278	326.23712	341.94681	18.54561	306.06491	158.58698	1117.40686	-692.58356	14.17663	578.38239	-439.16364	173.33296	575.19647	-453.54053	93.70442	561.84711	503.11020	250.20792	552.47583	490.23380	
4704	47.030	-84.95644	13.84626	-285.76303	282.38232	115.43495	-328.80466	-32.20201	116.64433	325.21848	342.52225	18.68865	306.04846	158.26207	1117.20276	-694.11536	14.02133	578.22137	-439.89819	174.12975	574.57861	-453.77484	94.57472	562.24701	502.76816	250.42413	552.32501	490.47678	
4705	47.040	-84.31713	13.51814	-285.76514	283.99066	124.33913	-328.53159	-32.41745	126.56125	324.67517	343.07913	18.91631	306.01944	158.33408	1116.86523	-695.81952	15.22881	577.52686	-440.24356	174.62801	573.65833	-453.53040	95.04711	562.69000	502.57297	250.99561	553.14349	489.59332	
4706	47.050	-84.03271	13.40574	-285.69269	285.37378	131.82907	-328.31534	-32.71052	134.94504	323.96432	343.44946	19.02450	305.89813	158.70906	1116.28613	-697.70044	15.93765	576.88391	-440.46136	175.24469	573.16711	-453.77502	95.80541	563.11865	502.38538	251.56068	553.44409	489.41351	
4707	47.060	-83.70937	13.25958	-285.76468	287.47180	137.39020	-328.50613	-33.92605	142.35535	323.13986	344.18509	19.26847	305.75055	159.37140	1115.52795	-699.50983	16.29575	576.48901	-440.70953	175.66177	572.26605	-453.77222	96.32793	563.50769	502.18149	252.30460	553.89819	489.12970	
4708	47.070	-83.28215	13.10343	-285.87354	289.56277	141.01299	-328.40219	-35.00530	147.26036	322.42554	344.70270	19.45815	305.65958	159.92291	1115.13342	-701.09857	16.86992	576.07770	-440.79150	176.63954	572.14850	-454.87222	97.05937	564.13416	501.92639	252.75581	554.40057	489.02792	
4709	47.080	-82.80934	12.98812	-286.00671	291.68832	141.90231	-328.32654	-35.80528	149.61324	322.10849	345.04340	19.63780	305.62833	160.61774	1114.64673	-702.73914	17.48000	575.83356	-441.11243	177.16910	571.76019	-455.43454	98.17362	564.64789	501.81833	253.75018	554.91608	488.38409	
4710	47.090	-82.53251	12.98164	-286.01773	293.67184	140.26775	-328.07578	-36.07366	149.18228	322.00867	345.16595	19.69147	305.56558	160.83151	1114.54688	-704.34204	17.87878	575.75745	-441.43195	177.14938	571.39087	-455.50980	98.62347	565.53552	501.23096	254.64658	555.44794	488.03360	
4711	47.100	-82.34901	12.90757	-286.10504	294.84677	136.95358	-327.89151	-35.51007	145.74435	322.72491	345.32663	19.64126	305.37909	161.42723	1114.46655	-705.79041	18.23372	575.58490	-441.77893	177.58528	570.98303	-455.37860	99.47659	566.11841	500.76648	255.24352	555.94531	487.57919	
4712	47.110	-81.94892	12.75778	-286.20010	295.49326	132.10057	-328.06482	-34.88272	141.76888	322.90674	345.59195	19.77161	305.35248	161.73607	1114.35168	-707.25330	18.85332	575.20886	-442.42276	178.61937	570.68799	-456.48044	100.23775	566.31940	500.44864	255.74965	556.36206	487.08749	
4713	47.120	-81.66840	12.57203	-286.25867	296.01779	126.20638	-328.76285	-34.00462	137.05203	322.84750	345.86020	19.84405	305.23483	162.18503	1114.12561	-708.63446	19.60573	574.59381	-443.10925	178.97197	570.12708	-456.84213	100.50594	566.71771	499.70844	256.58298	556.37170	486.61609	
4714	47.130	-81.46093	12.39540	-286.35284	297.20050	119.48545	-329.37112	-33.56623	131.44911	322.81244	346.32593	20.00075	305.22119	162.99060	1114.01929	-709.65155	19.72039	574.45837	-443.68793	179.26085	569.56592	-457.13806	101.26773	566.94104	499.18719	257.45892	556.57770	486.16940	
4715	47.140	-81.24344	12.26235	-286.39893	298.46744	113.06019	-330.57669	-33.49937	124.84370	322.16803	346.52890	20.16075	305.22968	163.46220	1113.77344	-710.85913	20.16035	574.13977	-444.53201	180.41415	569.39685	-458.47177	102.19500	567.31384	498.43875	257.83121	556.97638	485.09232	
4716	47.150	-81.11203	12.15866	-286.55237	300.37766	108.04356	-332.10291	-33.57942	118.04589	320.82217	347.22549	20.27601	305.01447	163.88353	1113.48523	-712.17767	20.86763	573.54706	-444.91776	180.32510	568.77679	-458.73294	102.95035	567.54303	497.70978	258.97610	557.06726	484.28168	
4717	47.160	-80.96059	11.91191	-286.71561	301.88998	101.99497	-334.07047	-32.91185	109.80315	319.62369	347.24307	20.31269	304.70868	164.65474	1112.98486	-713.56696	21.53615	572.91852	-445.49988	180.76222	568.36334	-459.85281	103.38407	567.66644	497.03027	259.29291	557.05640	483.62158	
4718	47.170	-80.88187	11.54669	-286.82587	303.49185	95.16429	-335.90060	-32.14146	100.93998	317.72876	347.33469	20.33005	304.62064	165.37737	1112.14612	-714.87366	22.02592	572.56348	-446.30063	181.44795	568.13177	-460.86191	104.10617	567.97662	496.04337	260.04044	557.14465	482.86765	
4719	47.180	-80.82040	11.32211	-286.92551	304.96796	87.24333	-337.59509	-31.86232	93.20589	315.09198	347.30814	20.32303	304.45682	165.72581	1111.51587	-716.43744	22.59739	572.22845	-447.26794	181.53197	567.04413	-460.98563	104.55468	568.25439	495.36316	260.47690	557.50153	481.99820	
4720	47.190	-80.74149	11.29298	-287.00192	305.80463	78.78197	-339.29749	-31.20716	85.27198	312.52094	347.44351	20.39878	304.39917	166.71599	1111.05164	-717.61646	22.78719	571.93683	-448.29257	181.63786	566.94012	-462.51776	105.39720	568.42523	494.75937	261.44089	557.94824	481.04465	
4721	47.200	-80.70752	11.22932	-287.09442	307.23267	69.93470	-340.24576	-30.22342	77.12554	310.46198	347.44861	20.54265	304.28461	167.04559	1110.70093	-718.90344	23.94445	571.37598	-448.65002	183.14000	566.93140	-463.63507	105.84303	568.76831	493.62091	261.47989	558.24652	480.09619	
4722	47.210	-80.65155	11.19381	-287.14145	307.94922	61.06791	-341.09866	-29.50406	68.89731	308.76218	347.65295	20.81514	304.24438	167.46989	1110.41687	-720.58777	23.95308	571.60809	-450.27679	182.92648	566.55682	-464.72913	106.59569	569.09784	492.58490	262.21756	558.46851	478.88531	
